<svg version="1.1" xmlns="http://www.w3.org/2000/svg" xmlns:xlink="http://www.w3.org/1999/xlink" x="0px"
	 y="0px" viewBox="0 0 1421 302" xml:space="preserve">

	 <title>fnordserver</title>

	<style>
		.signet, .text {
			fill: #ffffff;
		}
	</style>

	<g class="signet">
		<path d="M155.7,30.3c-66.6,0-120.7,54-120.7,120.7c0,66.6,54,120.7,120.7,120.7
			c66.6,0,120.7-54,120.7-120.7C276.4,84.4,222.4,30.3,155.7,30.3z M212.6,233H98.9L63.8,124.6l92-67l92,67L212.6,233z" />
		<path d="M156.2,72.7l-77.7,56.2l29.7,91.1h96.1l29.7-91.1L156.2,72.7z M175,188h-24v-3h2.2
			c2.1,0,3.5-0.3,4.5-1.2c0.9-1,1.3-2.3,1.3-4.5V149h-9v-3h9v-19.3c0-3-0.6-5.4-2-7.1c-1.4-1.7-3.2-2.5-5.6-2.5
			c-2.5,0-4.4,0.8-5.7,2.5c-1.4,1.7-2.1,3.8-2.1,6.9c0,0.6,0,1.6,0.1,1.6h-1.9l-4-10.2c2.9-2.2,6.8-3.3,11.6-3.3
			c5.4,0,9.7,2.1,12.9,6.3c3.1,4.1,4.7,9.4,4.7,15.8v8.1c2,0.8,4,1.7,7,2.8v1.5h-7v31c0,2,0.5,3.2,1.3,4c0.9,0.8,2.4,1,4.4,1h2.3V188
			z" />
	</g>

	<g class="text">
		<path d="M378.5,90.6h-20c-6.4,0-10.9,1.2-13.5,3.7c-2.6,2.5-3.9,6.7-3.9,12.7v15.6h31.2V136h-31.2v84
			h-17v-84h-17.6v-12.4l17.6-0.8v-17.6c0-9.5,2.2-16.6,6.6-21.4c4.4-4.8,11.7-7.2,21.8-7.2c11.2,0,20.3,0.5,27.4,1.4L378.5,90.6z" />
		<path d="M406.9,122.6l1.2,15.4c15.7-11.9,30.3-17.8,43.6-17.8c17.6,0,26.4,8.9,26.4,26.8v73h-17v-68.2
			c0-6.4-1.1-10.9-3.2-13.4c-2.1-2.5-5.7-3.8-10.8-3.8c-5.3,0-10.7,1.2-16.1,3.6c-5.4,2.4-12.6,6.3-21.5,11.8v70h-17v-97.4H406.9z" />
		<path d="M549.9,120.2c16.8,0,28.6,3.9,35.5,11.6c6.9,7.7,10.3,20.9,10.3,39.6c0,18.7-3.4,31.9-10.3,39.6
			c-6.9,7.7-18.7,11.6-35.5,11.6c-16.7,0-28.5-3.9-35.4-11.6c-6.9-7.7-10.4-20.9-10.4-39.6c0-18.7,3.5-31.9,10.4-39.6
			C521.5,124.1,533.3,120.2,549.9,120.2z M572,142.4c-4.1-5.2-11.4-7.8-22.1-7.8c-10.7,0-18,2.6-22,7.8c-4,5.2-6,14.9-6,29
			c0,14.1,2,23.8,6,29c4,5.2,11.3,7.8,22,7.8c10.7,0,18-2.6,22.1-7.8c4.1-5.2,6.1-14.9,6.1-29C578.1,157.3,576.1,147.6,572,142.4z" />
		<path d="M683.3,120.2l-2,16h-5.6c-4.9,0-10,1-15.3,2.9c-5.3,1.9-12.3,5.1-21.1,9.5V220h-17v-97.4h13.2
			l1.8,15.4c15.1-11.9,28.9-17.8,41.6-17.8H683.3z" />
		<path d="M783.9,80v140h-13.2l-1.6-14c-12.4,10.9-25.3,16.4-38.6,16.4c-12,0-20.7-4.2-26.1-12.7
			c-5.4-8.5-8.1-21.4-8.1-38.7c0-18.5,2.9-31.6,8.8-39.3c5.9-7.7,15.2-11.5,28-11.5c12.7,0,24.2,3,34.6,9c-0.5-5.9-0.8-12.3-0.8-19.2
			V80H783.9z M766.9,194.2v-53.8c-12.8-3.6-22.7-5.4-29.8-5.4c-8.7,0-14.7,2.5-18.2,7.4c-3.5,4.9-5.2,14.4-5.2,28.4
			s1.7,23.6,5.1,28.9c3.4,5.3,9.2,7.9,17.3,7.9c5.1,0,9.7-1,13.8-2.9C754.1,202.8,759.7,199.3,766.9,194.2z" />
		<path d="M857.1,182.8l-25.8-7c-8.5-2.4-14.5-5.8-17.9-10.2c-3.4-4.4-5.1-10.6-5.1-18.6
			c0-10.5,3-17.8,9-21.8s16.3-6,31-6c16,0.3,30.5,1.5,43.4,3.6l-1.8,16.8c-16.5-0.5-29-0.8-37.4-0.8c-8.8,0-14.5,0.4-17,1.3
			c-2.5,0.9-3.8,3.2-3.8,7.1c0,0.9,0.1,1.8,0.3,2.6c0.2,0.8,0.4,1.5,0.5,2c0.1,0.5,0.5,1,1.1,1.5c0.6,0.5,1,0.8,1.3,1.1
			c0.3,0.3,0.9,0.6,2,1c1.1,0.4,1.8,0.7,2.2,0.8c0.4,0.1,1.3,0.4,2.8,0.8c1.5,0.4,2.5,0.7,3.2,0.8l26.4,7.2c8.4,2.4,14.4,5.6,18,9.7
			c3.6,4.1,5.4,10.2,5.4,18.5c0,11.5-3.3,19.2-9.8,23.1c-6.5,3.9-17.9,5.9-34,5.9c-14.7,0-28.3-1.1-41-3.2l1.6-17
			c6.9,0.5,18.1,0.8,33.4,0.8c10.5,0,17.6-0.6,21.1-1.8c3.5-1.2,5.3-3.7,5.3-7.6c0-0.8-0.1-1.5-0.2-2.2c-0.1-0.7-0.3-1.3-0.6-1.8
			c-0.3-0.5-0.5-1-0.8-1.4c-0.3-0.4-0.7-0.8-1.4-1.2c-0.7-0.4-1.2-0.7-1.6-0.9c-0.4-0.2-1.1-0.5-2.1-0.8c-1-0.3-1.7-0.6-2.2-0.7
			c-0.5-0.1-1.4-0.4-2.7-0.8C858.6,183.2,857.7,182.9,857.1,182.8z" />
		<path d="M978.1,181.2h-40c0.9,8.5,3.3,14.2,7.2,17.1c3.9,2.9,10.2,4.3,19,4.3c10,0,21.7-0.8,35.2-2.4
			l2.2,15.6c-9.2,4.4-22.7,6.6-40.4,6.6c-17.7,0-30.3-3.9-37.8-11.8c-7.5-7.9-11.2-21.1-11.2-39.8c0-19.1,3.7-32.4,11-40.1
			c7.3-7.7,19.5-11.5,36.4-11.5c15.6,0,26.9,2.8,34,8.5c7.1,5.7,10.6,14.2,10.6,25.5C1004.3,171.9,995.6,181.2,978.1,181.2z
			 M937.7,164.2h33.6c5.9,0,8.8-3.8,8.8-11.4c0-5.3-1.4-9.1-4.2-11.2c-2.8-2.1-7.9-3.2-15.2-3.2c-8.5,0-14.4,1.8-17.7,5.3
			C939.8,147.2,938,154.1,937.7,164.2z" />
		<path d="M1092.7,119.2l-2.6,22.8h-7c-6.9,0-17.7,2.9-32.4,8.8V220h-24.4v-98h19l2.2,14.4
			c14-11.5,27.5-17.2,40.4-17.2H1092.7z" />
		<path d="M1202.3,122l-33.6,92.2c-1.5,3.9-4.2,5.8-8.2,5.8h-21.2c-4.3,0-6.9-1.9-8-5.8l-33.6-92.2h25.6
			l20.4,64.6c2.9,10.3,4.5,15.9,4.8,17h2.6l5.2-17l20.2-64.6H1202.3z" />
		<path d="M1277.9,181.2h-40c0.9,8.5,3.3,14.2,7.2,17.1c3.9,2.9,10.2,4.3,19,4.3c10,0,21.7-0.8,35.2-2.4
			l2.2,15.6c-9.2,4.4-22.7,6.6-40.4,6.6c-17.7,0-30.3-3.9-37.8-11.8c-7.5-7.9-11.2-21.1-11.2-39.8c0-19.1,3.7-32.4,11-40.1
			c7.3-7.7,19.5-11.5,36.4-11.5c15.6,0,26.9,2.8,34,8.5c7.1,5.7,10.6,14.2,10.6,25.5C1304.1,171.9,1295.4,181.2,1277.9,181.2z
			 M1237.5,164.2h33.6c5.9,0,8.8-3.8,8.8-11.4c0-5.3-1.4-9.1-4.2-11.2c-2.8-2.1-7.9-3.2-15.2-3.2c-8.5,0-14.4,1.8-17.7,5.3
			C1239.6,147.2,1237.8,154.1,1237.5,164.2z" />
		<path d="M1392.5,119.2l-2.6,22.8h-7c-6.9,0-17.7,2.9-32.4,8.8V220h-24.4v-98h19l2.2,14.4
			c14-11.5,27.5-17.2,40.4-17.2H1392.5z" />
	</g>
</svg>
