<?xml version="1.0" encoding="utf-8"?>
<!-- Generator: Adobe Illustrator 19.1.0, SVG Export Plug-In . SVG Version: 6.00 Build 0)  -->
<svg version="1.1" id="fnordcordia" xmlns="http://www.w3.org/2000/svg" xmlns:xlink="http://www.w3.org/1999/xlink" x="0px"
	 y="0px" viewBox="0 0 1387 302" style="enable-background:new 0 0 1387 302;" xml:space="preserve">
<style type="text/css">
	.st0{font-family:'Exo2-SemiBold';}
	.st1{font-size:200px;}
	.st2{font-family:'Exo2-Regular';}
</style>
<g id="XMLID_47_">
	<path id="XMLID_50_" d="M155.7,30.3c-66.6,0-120.7,54-120.7,120.7c0,66.6,54,120.7,120.7,120.7c66.6,0,120.7-54,120.7-120.7
		C276.4,84.4,222.4,30.3,155.7,30.3z M212.6,233H98.9L63.8,124.6l92-67l92,67L212.6,233z"/>
	<path id="XMLID_53_" d="M156.2,72.7l-77.7,56.2l29.7,91.1h96.1l29.7-91.1L156.2,72.7z M175,188h-24v-3h2.2c2.1,0,3.5-0.3,4.5-1.2
		c0.9-1,1.3-2.3,1.3-4.5V149h-9v-3h9v-19.3c0-3-0.6-5.4-2-7.1c-1.4-1.7-3.2-2.5-5.6-2.5c-2.5,0-4.4,0.8-5.7,2.5
		c-1.4,1.7-2.1,3.8-2.1,6.9c0,0.6,0,1.6,0.1,1.6h-1.9l-4-10.2c2.9-2.2,6.8-3.3,11.6-3.3c5.4,0,9.7,2.1,12.9,6.3
		c3.1,4.1,4.7,9.4,4.7,15.8v8.1c2,0.8,4,1.7,7,2.8v1.5h-7v31c0,2,0.5,3.2,1.3,4c0.9,0.8,2.4,1,4.4,1h2.3V188z"/>
</g>
<text id="XMLID_1_" transform="matrix(1 0 0 1 300.939 220)"><tspan x="0" y="0" class="st0 st1">fnord</tspan><tspan x="511.4" y="0" class="st2 st1">cordia</tspan></text>
</svg>
