<?xml version="1.0" encoding="utf-8"?>
<!-- Generator: Adobe Illustrator 19.1.0, SVG Export Plug-In . SVG Version: 6.00 Build 0)  -->
<svg version="1.1" id="fnordcordia" xmlns="http://www.w3.org/2000/svg" xmlns:xlink="http://www.w3.org/1999/xlink" x="0px"
	 y="0px" viewBox="0 0 1387 302" style="enable-background:new 0 0 1387 302;" xml:space="preserve">
<g id="XMLID_47_">
	<path id="XMLID_50_" d="M155.7,30.3c-66.6,0-120.7,54-120.7,120.7c0,66.6,54,120.7,120.7,120.7c66.6,0,120.7-54,120.7-120.7
		C276.4,84.4,222.4,30.3,155.7,30.3z M212.6,233H98.9L63.8,124.6l92-67l92,67L212.6,233z"/>
	<path id="XMLID_53_" d="M156.2,72.7l-77.7,56.2l29.7,91.1h96.1l29.7-91.1L156.2,72.7z M175,188h-24v-3h2.2c2.1,0,3.5-0.3,4.5-1.2
		c0.9-1,1.3-2.3,1.3-4.5V149h-9v-3h9v-19.3c0-3-0.6-5.4-2-7.1c-1.4-1.7-3.2-2.5-5.6-2.5c-2.5,0-4.4,0.8-5.7,2.5
		c-1.4,1.7-2.1,3.8-2.1,6.9c0,0.6,0,1.6,0.1,1.6h-1.9l-4-10.2c2.9-2.2,6.8-3.3,11.6-3.3c5.4,0,9.7,2.1,12.9,6.3
		c3.1,4.1,4.7,9.4,4.7,15.8v8.1c2,0.8,4,1.7,7,2.8v1.5h-7v31c0,2,0.5,3.2,1.3,4c0.9,0.8,2.4,1,4.4,1h2.3V188z"/>
</g>
<g>
	<path d="M381.5,95.2h-19.2c-5.5,0-9.3,1-11.5,3.1c-2.2,2.1-3.3,5.6-3.3,10.7v13h28.6v17.6h-28.6V220h-24.4v-80.4h-17.4V123l17.4-1
		v-16.2c0-9.6,2.4-16.9,7.2-22c4.8-5.1,12.6-7.6,23.4-7.6c12.8,0,22.7,0.6,29.8,1.8L381.5,95.2z"/>
	<path d="M413.9,122l1.6,14.4c15.2-11.5,29.3-17.2,42.4-17.2c8.7,0,15.3,2.3,20,7c4.7,4.7,7,11.4,7,20.2V220h-24.4v-66.2
		c0-5.5-0.7-9.2-2.2-11.1c-1.5-1.9-4.2-2.9-8.2-2.9c-4.5,0-9.2,0.9-13.9,2.8c-4.7,1.9-10.8,4.9-18.3,9.2V220h-24.4v-98H413.9z"/>
	<path d="M555.7,119.2c17.6,0,30,3.9,37.3,11.8c7.3,7.9,10.9,21.2,10.9,40s-3.6,32.1-10.9,39.9c-7.3,7.8-19.7,11.7-37.3,11.7
		c-17.7,0-30.3-3.9-37.6-11.7c-7.3-7.8-11-21.1-11-39.9s3.7-32.1,11-40C525.5,123.1,538,119.2,555.7,119.2z M555.7,138.6
		c-9.1,0-15.2,2.2-18.4,6.7c-3.2,4.5-4.8,13-4.8,25.7c0,12.5,1.6,21,4.8,25.5c3.2,4.5,9.3,6.7,18.4,6.7c8.8,0,14.8-2.2,18.1-6.7
		c3.3-4.5,4.9-13,4.9-25.5c0-12.7-1.6-21.2-4.9-25.7C570.6,140.8,564.5,138.6,555.7,138.6z"/>
	<path d="M693.1,119.2l-2.6,22.8h-7c-6.9,0-17.7,2.9-32.4,8.8V220h-24.4v-98h19l2.2,14.4c14-11.5,27.5-17.2,40.4-17.2H693.1z"/>
	<path d="M797.7,80v140h-19.2l-2-13.4c-11.3,10.5-24,15.8-38,15.8c-12,0-20.7-4.4-26.2-13.1c-5.5-8.7-8.2-21.7-8.2-38.9
		c0-18.8,3-32,9.1-39.7c6.1-7.7,15.6-11.5,28.5-11.5c12.5,0,23.4,2.9,32.6,8.6c-0.7-5.3-1-11.9-1-19.6V80H797.7z M773.3,191.6V143
		c-10.7-2.7-18.8-4-24.4-4c-7.6,0-12.8,2-15.6,6.1c-2.8,4.1-4.2,12.4-4.2,25.1c0,12.4,1.4,20.8,4.1,25.1c2.7,4.3,7.5,6.5,14.3,6.5
		c4.5,0,8.5-0.7,11.8-2.1C762.7,198.3,767.3,195.6,773.3,191.6z"/>
	<path d="M899.9,206l1.8,11.4c-9.6,3.3-20.7,5-33.4,5c-16.8,0-28.7-3.8-35.7-11.5c-7-7.7-10.5-20.9-10.5-39.7s3.5-32,10.5-39.6
		s19-11.4,35.9-11.4c12.8,0,23.3,1.5,31.4,4.6l-2.2,11c-8.8-0.8-17.6-1.2-26.4-1.2c-11.7,0-19.9,2.6-24.4,7.8
		c-4.5,5.2-6.8,14.8-6.8,28.8c0,14.1,2.3,23.8,6.8,29c4.5,5.2,12.7,7.8,24.4,7.8C882,208,891.5,207.3,899.9,206z"/>
	<path d="M964.3,120.2c16.8,0,28.6,3.9,35.5,11.6c6.9,7.7,10.3,20.9,10.3,39.6c0,18.7-3.4,31.9-10.3,39.6
		c-6.9,7.7-18.7,11.6-35.5,11.6c-16.7,0-28.5-3.9-35.4-11.6c-6.9-7.7-10.4-20.9-10.4-39.6c0-18.7,3.5-31.9,10.4-39.6
		C935.9,124.1,947.7,120.2,964.3,120.2z M986.4,142.4c-4.1-5.2-11.4-7.8-22.1-7.8c-10.7,0-18,2.6-22,7.8c-4,5.2-6,14.9-6,29
		c0,14.1,2,23.8,6,29c4,5.2,11.3,7.8,22,7.8c10.7,0,18-2.6,22.1-7.8c4.1-5.2,6.1-14.9,6.1-29C992.5,157.3,990.5,147.6,986.4,142.4z"
		/>
	<path d="M1097.7,120.2l-2,16h-5.6c-4.9,0-10,1-15.3,2.9c-5.3,1.9-12.3,5.1-21.1,9.5V220h-17v-97.4h13.2l1.8,15.4
		c15.1-11.9,28.9-17.8,41.6-17.8H1097.7z"/>
	<path d="M1198.3,80v140h-13.2l-1.6-14c-12.4,10.9-25.3,16.4-38.6,16.4c-12,0-20.7-4.2-26.1-12.7c-5.4-8.5-8.1-21.4-8.1-38.7
		c0-18.5,2.9-31.6,8.8-39.3c5.9-7.7,15.2-11.5,28-11.5c12.7,0,24.2,3,34.6,9c-0.5-5.9-0.8-12.3-0.8-19.2V80H1198.3z M1181.3,194.2
		v-53.8c-12.8-3.6-22.7-5.4-29.8-5.4c-8.7,0-14.7,2.5-18.2,7.4c-3.5,4.9-5.2,14.4-5.2,28.4s1.7,23.6,5.1,28.9
		c3.4,5.3,9.2,7.9,17.3,7.9c5.1,0,9.7-1,13.8-2.9C1168.5,202.8,1174.1,199.3,1181.3,194.2z"/>
	<path d="M1234.9,81.2h8c3.5,0,5.2,1.7,5.2,5.2v11.4c0,3.5-1.7,5.2-5.2,5.2h-8c-3.5,0-5.2-1.7-5.2-5.2V86.4
		C1229.7,82.9,1231.5,81.2,1234.9,81.2z M1247.3,220h-16.8v-97.4h16.8V220z"/>
	<path d="M1279.9,137.2l-1.6-12.6c17.9-2.9,33.5-4.4,47-4.4c11.3,0,19.7,2.4,25.2,7.1c5.5,4.7,8.2,12.8,8.2,24.1V220h-13.4l-2-16
		c-4.7,4.7-10.5,8.8-17.5,12.4c-7,3.6-14.6,5.4-22.7,5.4c-8.9,0-16-2.4-21.3-7.1c-5.3-4.7-7.9-11.4-7.9-20.1V184
		c0-7.6,2.4-13.5,7.1-17.7c4.7-4.2,11.4-6.3,19.9-6.3h40.6v-8.6c0-6.1-1.4-10.5-4.2-13c-2.8-2.5-8-3.8-15.6-3.8
		C1312.1,134.6,1298.2,135.5,1279.9,137.2z M1291.3,186.4v6.2c0,5.1,1.2,8.8,3.6,11.1c2.4,2.3,6.3,3.5,11.6,3.5
		c5.1,0.1,10.8-1.1,17.3-3.6c6.5-2.5,12.4-6.2,17.7-11V173h-37.6c-4.5,0.1-7.8,1.3-9.7,3.6C1292.3,178.9,1291.3,182.1,1291.3,186.4z
		"/>
</g>
</svg>
